<?xml version="1.0" encoding="UTF-8"?>
<svg xmlns="http://www.w3.org/2000/svg" xmlns:xlink="http://www.w3.org/1999/xlink" width="70px" height="70px" viewBox="0 0 70 70" version="1.1">
<g id="surface1">
<path style=" stroke:none;fill-rule:nonzero;fill:rgb(0%,0%,0%);fill-opacity:1;" d="M 0 35 L 0 70 L 70 70 L 70 0 L 0 0 Z M 27.925781 16.917969 C 28.5 19.304688 28.78125 20.015625 29.355469 20.601562 C 29.960938 21.230469 30.863281 21.601562 32.777344 22.011719 C 33.347656 22.132812 33.84375 22.257812 33.898438 22.285156 C 33.949219 22.3125 33.421875 22.476562 32.667969 22.660156 C 30.644531 23.160156 30.09375 23.386719 29.492188 23.9375 C 28.875 24.507812 28.621094 25.082031 28.089844 27.089844 C 27.898438 27.816406 27.726562 28.449219 27.707031 28.503906 C 27.691406 28.558594 27.523438 28.054688 27.335938 27.378906 C 26.730469 25.15625 26.46875 24.546875 25.882812 23.960938 C 25.328125 23.398438 24.746094 23.160156 22.902344 22.703125 L 21.292969 22.304688 L 22.25 22.085938 C 25.171875 21.410156 25.992188 20.957031 26.566406 19.722656 C 26.832031 19.140625 27.171875 18 27.453125 16.734375 C 27.5625 16.261719 27.660156 15.871094 27.664062 15.878906 C 27.664062 15.886719 27.789062 16.351562 27.925781 16.917969 Z M 46.929688 22.242188 C 47.824219 22.484375 48.289062 22.824219 48.617188 23.496094 C 48.808594 23.890625 48.84375 24.027344 48.863281 24.617188 C 48.898438 25.394531 48.808594 25.957031 48.523438 26.859375 C 47.96875 28.585938 46.902344 30.46875 45.363281 32.429688 C 44.53125 33.496094 44.535156 33.480469 44.570312 33.507812 C 45.792969 34.398438 46.886719 35.640625 47.734375 37.097656 L 47.980469 37.527344 L 47.066406 37.527344 L 46.585938 36.796875 C 45.164062 34.625 42.835938 33.105469 40.058594 32.539062 C 37.988281 32.121094 35.191406 32.195312 32.746094 32.742188 C 29.683594 33.425781 26.386719 35.019531 23.605469 37.167969 C 23.105469 37.554688 23.015625 37.597656 22.730469 37.597656 C 22.550781 37.597656 22.421875 37.570312 22.4375 37.535156 C 22.449219 37.5 22.730469 37.144531 23.066406 36.742188 C 25.007812 34.40625 29.203125 30.578125 32.472656 28.148438 C 36.660156 25.039062 41.871094 22.53125 44.925781 22.148438 C 45.535156 22.074219 46.464844 22.121094 46.929688 22.242188 Z M 29.8125 40.835938 C 30.167969 40.917969 30.832031 41.242188 30.832031 41.328125 C 30.832031 41.355469 30.734375 41.5 30.613281 41.65625 C 30.496094 41.808594 30.386719 41.945312 30.378906 41.957031 C 30.371094 41.964844 30.207031 41.875 30.011719 41.753906 C 29.738281 41.582031 29.558594 41.527344 29.230469 41.507812 C 28.574219 41.464844 28.234375 41.691406 28.234375 42.171875 C 28.234375 42.527344 28.5 42.75 29.167969 42.957031 C 30.277344 43.296875 30.589844 43.488281 30.832031 43.960938 C 31.015625 44.316406 31.015625 44.898438 30.832031 45.261719 C 30.652344 45.601562 30.242188 45.902344 29.796875 46.003906 C 29.421875 46.09375 28.636719 46.066406 28.234375 45.945312 C 27.945312 45.855469 27.261719 45.453125 27.226562 45.355469 C 27.222656 45.316406 27.308594 45.171875 27.433594 45.027344 L 27.652344 44.761719 L 28.046875 45 C 28.800781 45.453125 29.574219 45.5 29.957031 45.117188 C 30.160156 44.910156 30.214844 44.550781 30.078125 44.289062 C 29.984375 44.113281 29.558594 43.90625 28.8125 43.675781 C 28.472656 43.566406 28.074219 43.394531 27.9375 43.292969 C 27.167969 42.710938 27.277344 41.480469 28.128906 41.027344 C 28.683594 40.742188 29.175781 40.6875 29.8125 40.835938 Z M 24.570312 43.40625 L 25.613281 45.972656 L 25.203125 45.992188 C 24.726562 46.019531 24.753906 46.039062 24.492188 45.308594 L 24.300781 44.773438 L 22.027344 44.773438 L 21.785156 45.371094 L 21.546875 45.972656 L 21.125 45.992188 C 20.796875 46.003906 20.707031 45.992188 20.734375 45.921875 C 21.097656 44.988281 22.730469 40.960938 22.769531 40.914062 C 22.796875 40.871094 22.984375 40.84375 23.175781 40.84375 L 23.53125 40.851562 Z M 36.777344 41.1875 L 36.777344 41.5625 L 35.207031 41.5625 L 35.207031 46.003906 L 34.386719 46.003906 L 34.386719 41.5625 L 32.8125 41.5625 L 32.8125 40.84375 L 34.796875 40.832031 L 36.777344 40.808594 Z M 41.535156 40.941406 C 41.925781 41.042969 42.238281 41.273438 42.484375 41.617188 C 42.675781 41.898438 42.691406 41.957031 42.691406 42.519531 C 42.691406 43.078125 42.675781 43.140625 42.484375 43.421875 C 42.371094 43.578125 42.136719 43.789062 41.964844 43.886719 L 41.660156 44.058594 L 42.847656 45.972656 L 42.472656 45.992188 C 42.261719 46.003906 42.054688 46 42.007812 45.984375 C 41.964844 45.964844 41.699219 45.589844 41.425781 45.136719 C 40.730469 44.023438 40.8125 44.089844 40.214844 44.089844 L 39.71875 44.089844 L 39.71875 46.003906 L 38.898438 46.003906 L 38.898438 43.457031 C 38.898438 42.046875 38.917969 40.886719 38.9375 40.859375 C 39.011719 40.789062 41.234375 40.851562 41.535156 40.941406 Z M 47.652344 40.980469 C 47.679688 41.054688 48.152344 42.21875 48.699219 43.558594 L 49.691406 46.003906 L 48.828125 46.003906 L 48.597656 45.402344 L 48.359375 44.808594 L 47.222656 44.789062 L 46.089844 44.773438 L 45.847656 45.371094 L 45.609375 45.972656 L 45.1875 45.992188 C 44.953125 46.003906 44.777344 45.984375 44.78125 45.949219 C 44.796875 45.921875 45.253906 44.789062 45.792969 43.433594 C 46.335938 42.089844 46.804688 40.945312 46.832031 40.914062 C 46.859375 40.871094 47.046875 40.84375 47.242188 40.84375 C 47.53125 40.851562 47.613281 40.878906 47.652344 40.980469 Z M 47.074219 49.101562 C 47.421875 49.28125 47.460938 49.375 47.277344 49.554688 L 47.121094 49.703125 L 46.855469 49.527344 C 46.375 49.199219 45.734375 49.367188 45.453125 49.902344 C 45.164062 50.433594 45.328125 51.132812 45.820312 51.5 C 46.066406 51.6875 46.574219 51.6875 46.882812 51.507812 C 47.074219 51.390625 47.101562 51.335938 47.101562 51.085938 L 47.101562 50.789062 L 46.722656 50.789062 C 46.355469 50.789062 46.347656 50.789062 46.347656 50.585938 L 46.347656 50.378906 L 47.511719 50.378906 L 47.511719 51.644531 L 47.285156 51.796875 C 46.964844 52.015625 46.722656 52.089844 46.339844 52.089844 C 45.4375 52.089844 44.851562 51.460938 44.84375 50.488281 C 44.84375 49.921875 45.0625 49.457031 45.460938 49.183594 C 45.890625 48.882812 46.585938 48.847656 47.074219 49.101562 Z M 25.019531 49.101562 C 25.375 49.285156 25.394531 49.339844 25.230469 49.554688 L 25.109375 49.71875 L 24.882812 49.558594 C 24.554688 49.328125 24.089844 49.300781 23.789062 49.503906 C 23.441406 49.738281 23.222656 50.195312 23.269531 50.605469 C 23.316406 51.0625 23.496094 51.34375 23.859375 51.527344 C 24.207031 51.707031 24.492188 51.6875 24.875 51.46875 C 25.109375 51.332031 25.109375 51.332031 25.246094 51.46875 C 25.367188 51.582031 25.375 51.617188 25.285156 51.71875 C 25.011719 52.054688 24.164062 52.191406 23.667969 51.988281 C 22.523438 51.507812 22.464844 49.667969 23.570312 49.082031 C 23.941406 48.890625 24.636719 48.898438 25.019531 49.101562 Z M 29.382812 49.164062 L 29.359375 49.390625 L 28.527344 49.410156 L 27.6875 49.429688 L 27.6875 50.242188 L 29.121094 50.242188 L 29.121094 50.6875 L 27.71875 50.6875 L 27.699219 51.144531 L 27.679688 51.609375 L 29.394531 51.609375 L 29.394531 52.019531 L 27.207031 52.019531 L 27.207031 48.945312 L 29.402344 48.945312 Z M 31.789062 50.484375 L 31.789062 52.019531 L 31.308594 52.019531 L 31.308594 48.945312 L 31.789062 48.945312 Z M 34.386719 50.277344 L 34.386719 51.609375 L 35.957031 51.609375 L 35.957031 52.019531 L 33.839844 52.019531 L 33.839844 48.945312 L 34.386719 48.945312 Z M 38.246094 50.484375 L 38.246094 52.019531 L 37.734375 52.019531 L 37.734375 48.945312 L 38.246094 48.945312 Z M 41.617188 50.078125 L 42.453125 51.214844 L 42.453125 48.945312 L 42.929688 48.945312 L 42.929688 52.019531 L 42.703125 52.019531 C 42.492188 52.019531 42.429688 51.953125 41.664062 50.90625 L 40.84375 49.800781 L 40.824219 50.925781 L 40.8125 52.0625 L 40.570312 52.035156 L 40.332031 52.007812 L 40.332031 48.945312 L 40.558594 48.945312 C 40.777344 48.945312 40.832031 49.007812 41.617188 50.078125 Z M 41.617188 50.078125 "/>
<path style=" stroke:none;fill-rule:nonzero;fill:rgb(0%,0%,0%);fill-opacity:1;" d="M 27.46875 19.589844 C 27.058594 20.863281 26.277344 21.667969 24.984375 22.140625 L 24.472656 22.324219 L 24.945312 22.476562 C 26.140625 22.867188 27.097656 23.890625 27.523438 25.246094 L 27.644531 25.632812 L 27.835938 25.113281 C 28.320312 23.773438 29.074219 22.996094 30.332031 22.515625 L 30.90625 22.304688 L 30.578125 22.222656 C 29.703125 21.996094 28.710938 21.257812 28.238281 20.480469 C 28.117188 20.273438 27.933594 19.859375 27.828125 19.558594 L 27.652344 19.011719 Z M 27.46875 19.589844 "/>
<path style=" stroke:none;fill-rule:nonzero;fill:rgb(0%,0%,0%);fill-opacity:1;" d="M 44.742188 23.0625 C 41.160156 23.660156 35.792969 26.503906 31.070312 30.308594 C 29.621094 31.480469 26.757812 34.027344 26.824219 34.089844 C 26.839844 34.105469 27.007812 34.023438 27.207031 33.898438 C 27.761719 33.558594 29.25 32.90625 30.234375 32.574219 C 32.730469 31.730469 34.972656 31.390625 37.5625 31.464844 C 39.832031 31.527344 41.589844 31.929688 43.273438 32.777344 L 43.769531 33.03125 L 44.003906 32.765625 C 45.242188 31.34375 46.171875 29.996094 46.855469 28.640625 C 47.6875 27.015625 48.058594 25.839844 48.058594 24.847656 C 48.058594 23.910156 47.734375 23.441406 46.894531 23.140625 C 46.484375 22.988281 45.410156 22.953125 44.742188 23.0625 Z M 44.742188 23.0625 "/>
<path style=" stroke:none;fill-rule:nonzero;fill:rgb(0%,0%,0%);fill-opacity:1;" d="M 22.722656 42.914062 L 22.304688 43.988281 L 23.125 44.007812 C 23.578125 44.015625 23.953125 44.015625 23.96875 44.003906 C 23.988281 43.980469 23.476562 42.648438 23.1875 41.957031 C 23.152344 41.875 23.011719 42.171875 22.722656 42.914062 Z M 22.722656 42.914062 "/>
<path style=" stroke:none;fill-rule:nonzero;fill:rgb(0%,0%,0%);fill-opacity:1;" d="M 39.71875 42.484375 L 39.71875 43.40625 L 40.488281 43.40625 C 41.125 43.40625 41.289062 43.386719 41.472656 43.269531 C 41.824219 43.058594 41.925781 42.847656 41.890625 42.417969 C 41.835938 41.738281 41.523438 41.5625 40.386719 41.5625 L 39.71875 41.5625 Z M 39.71875 42.484375 "/>
<path style=" stroke:none;fill-rule:nonzero;fill:rgb(0%,0%,0%);fill-opacity:1;" d="M 47.167969 41.902344 C 47.167969 41.945312 46.992188 42.4375 46.765625 42.996094 L 46.363281 44.023438 L 47.210938 44.023438 C 47.675781 44.023438 48.058594 44.007812 48.058594 43.988281 C 48.058594 43.96875 47.886719 43.53125 47.679688 43.019531 C 47.476562 42.5 47.304688 42.039062 47.304688 41.992188 C 47.304688 41.953125 47.277344 41.890625 47.238281 41.871094 C 47.203125 41.847656 47.167969 41.863281 47.167969 41.902344 Z M 47.167969 41.902344 "/>
</g>
</svg>
