<?xml version="1.0" standalone="no"?>
<!DOCTYPE svg PUBLIC "-//W3C//DTD SVG 20010904//EN"
 "http://www.w3.org/TR/2001/REC-SVG-20010904/DTD/svg10.dtd">
<svg version="1.0" xmlns="http://www.w3.org/2000/svg"
 width="1024.000000pt" height="1024.000000pt" viewBox="0 0 1024.000000 1024.000000"
 preserveAspectRatio="xMidYMid meet">

<g transform="translate(0.000000,1024.000000) scale(0.100000,-0.100000)"
fill="#000000" stroke="none">
<path d="M0 5120 l0 -5120 5120 0 5120 0 0 5120 0 5120 -5120 0 -5120 0 0
-5120z m4085 2645 c84 -349 125 -453 209 -539 89 -92 221 -146 501 -206 83
-18 156 -36 164 -40 7 -4 -70 -28 -180 -55 -296 -73 -377 -106 -465 -187 -90
-83 -127 -167 -205 -461 -28 -106 -53 -199 -56 -207 -2 -8 -27 66 -54 165 -89
325 -127 414 -213 500 -81 82 -166 117 -436 184 l-235 58 140 32 c427 99 547
165 631 346 39 85 89 252 130 437 16 69 30 126 31 125 0 -1 18 -69 38 -152z
m2780 -779 c131 -35 199 -85 247 -183 28 -58 33 -78 36 -164 5 -114 -8 -196
-50 -328 -81 -253 -237 -528 -462 -815 -122 -156 -121 -154 -116 -158 179
-130 339 -312 463 -525 l36 -63 -67 0 -67 0 -70 107 c-208 318 -549 540 -955
623 -303 61 -712 50 -1070 -30 -448 -100 -930 -333 -1337 -647 -73 -57 -86
-63 -128 -63 -26 0 -45 4 -43 9 2 5 43 57 92 116 284 342 898 902 1376 1257
613 455 1375 822 1822 878 89 11 225 4 293 -14z m-2504 -2720 c52 -12 149 -59
149 -72 0 -4 -14 -25 -32 -48 -17 -22 -33 -42 -34 -44 -1 -1 -25 12 -54 30
-40 25 -66 33 -114 36 -96 6 -146 -27 -146 -97 0 -52 39 -85 137 -115 162 -50
208 -78 243 -147 27 -52 27 -137 0 -190 -26 -50 -86 -94 -151 -109 -55 -13
-170 -9 -229 9 -42 13 -142 72 -147 86 -1 6 12 27 30 48 l32 39 58 -35 c110
-66 223 -73 279 -17 30 30 38 83 18 121 -14 26 -76 56 -185 90 -50 16 -108 41
-128 56 -113 85 -97 265 28 331 81 42 153 50 246 28z m-767 -376 l153 -375
-60 -3 c-70 -4 -66 -7 -104 100 l-28 78 -166 0 -167 0 -35 -87 -35 -88 -62 -3
c-48 -2 -61 0 -57 10 53 137 292 726 298 733 4 6 31 10 59 10 l52 -1 152 -374z
m1786 325 l0 -55 -115 0 -115 0 0 -325 0 -325 -60 0 -60 0 0 325 0 325 -115 0
-115 0 0 53 0 52 290 2 290 3 0 -55z m696 36 c57 -15 103 -49 139 -99 28 -41
30 -50 30 -132 0 -82 -2 -91 -30 -132 -17 -23 -51 -54 -76 -68 l-45 -25 87
-140 87 -140 -55 -3 c-31 -2 -61 -1 -68 1 -6 3 -45 58 -85 124 -102 163 -90
153 -177 153 l-73 0 0 -140 0 -140 -60 0 -60 0 0 373 c0 206 3 376 6 380 11
10 336 1 380 -12z m895 -6 c4 -11 73 -181 153 -377 l145 -358 -63 0 -63 0 -34
88 -35 87 -166 3 -166 2 -35 -87 -35 -88 -62 -3 c-34 -2 -60 1 -59 6 2 4 69
170 148 368 79 197 148 364 152 369 4 6 31 10 60 10 42 -1 54 -5 60 -20z m-85
-1188 c51 -26 57 -40 30 -66 l-23 -22 -39 26 c-70 48 -164 23 -205 -55 -42
-78 -18 -180 54 -234 36 -27 110 -27 155 -1 28 17 32 25 32 62 l0 43 -55 0
c-54 0 -55 0 -55 30 l0 30 85 0 85 0 0 -92 0 -93 -33 -22 c-47 -32 -82 -43
-138 -43 -132 0 -218 92 -219 234 0 83 32 151 90 191 63 44 165 49 236 12z
m-3226 0 c52 -27 55 -35 31 -66 l-18 -24 -33 23 c-48 34 -116 38 -160 8 -51
-34 -83 -101 -76 -161 7 -67 33 -108 86 -135 51 -26 93 -23 149 9 34 20 34 20
54 0 18 -17 19 -22 6 -37 -40 -49 -164 -69 -237 -39 -167 70 -176 339 -14 425
54 28 156 27 212 -3z m638 -9 l-3 -33 -122 -3 -123 -3 0 -59 0 -60 105 0 105
0 0 -32 0 -33 -102 0 -103 0 -3 -67 -3 -68 126 0 125 0 0 -30 0 -30 -160 0
-160 0 0 225 0 225 161 0 160 0 -3 -32z m352 -193 l0 -225 -35 0 -35 0 0 225
0 225 35 0 35 0 0 -225z m380 30 l0 -195 115 0 115 0 0 -30 0 -30 -155 0 -155
0 0 225 0 225 40 0 40 0 0 -195z m565 -30 l0 -225 -37 0 -38 0 0 225 0 225 38
0 37 0 0 -225z m493 59 l122 -166 0 166 0 166 35 0 35 0 0 -225 0 -225 -33 0
c-31 0 -40 10 -152 163 l-120 162 -3 -165 -2 -166 -35 4 -35 4 0 224 0 224 33
0 c32 0 40 -9 155 -166z"/>
<path d="M4018 7374 c-60 -186 -174 -304 -363 -373 l-75 -27 69 -22 c175 -57
315 -207 377 -405 l18 -57 28 76 c71 196 181 310 365 380 l84 31 -48 12 c-128
33 -273 141 -342 255 -18 30 -45 91 -60 135 l-26 80 -27 -85z"/>
<path d="M6545 6866 c-524 -87 -1309 -503 -2000 -1060 -212 -171 -631 -544
-621 -553 2 -2 27 10 56 28 81 50 299 145 443 194 365 123 693 173 1072 162
332 -9 589 -68 835 -192 l73 -37 34 39 c181 208 317 405 417 603 122 238 176
410 176 555 0 137 -47 206 -170 250 -60 22 -217 27 -315 11z"/>
<path d="M3324 3962 l-61 -157 120 -3 c66 -1 121 -1 123 1 3 3 -72 198 -114
299 -5 12 -26 -31 -68 -140z"/>
<path d="M5810 4025 l0 -135 113 0 c93 0 117 3 144 20 51 31 66 62 61 125 -8
99 -54 125 -220 125 l-98 0 0 -135z"/>
<path d="M6900 4110 c0 -6 -26 -78 -59 -160 l-59 -150 124 0 c68 0 124 2 124
5 0 3 -25 67 -55 142 -30 76 -55 143 -55 150 0 6 -4 15 -10 18 -5 3 -10 1 -10
-5z"/>
</g>
</svg>
